<svg width="27" height="30" viewBox="0 0 27 30" fill="none" xmlns="http://www.w3.org/2000/svg">
<g filter="url(#filter0_d_0_8169)">
<path d="M20.3866 1C20.5893 1 20.7832 1.03966 20.9683 1.11897C21.2591 1.23353 21.4904 1.41419 21.6623 1.66094C21.8341 1.90769 21.92 2.18088 21.92 2.4805V19.5195C21.92 19.8191 21.8341 20.0923 21.6623 20.3391C21.4904 20.5858 21.2591 20.7665 20.9683 20.881C20.8008 20.9515 20.607 20.9868 20.3866 20.9868C19.9636 20.9868 19.5979 20.8458 19.2895 20.5638L13.46 14.959L7.63054 20.5638C7.31328 20.8546 6.94757 21 6.53338 21C6.33069 21 6.13681 20.9603 5.95175 20.881C5.66094 20.7665 5.42961 20.5858 5.25777 20.3391C5.08592 20.0923 5 19.8191 5 19.5195V2.4805C5 2.18088 5.08592 1.90769 5.25777 1.66094C5.42961 1.41419 5.66094 1.23353 5.95175 1.11897C6.13681 1.03966 6.33069 1 6.53338 1H20.3866Z" fill="#5A698F"/>
<path d="M20.3866 1C20.5893 1 20.7832 1.03966 20.9683 1.11897C21.2591 1.23353 21.4904 1.41419 21.6623 1.66094C21.8341 1.90769 21.92 2.18088 21.92 2.4805V19.5195C21.92 19.8191 21.8341 20.0923 21.6623 20.3391C21.4904 20.5858 21.2591 20.7665 20.9683 20.881C20.8008 20.9515 20.607 20.9868 20.3866 20.9868C19.9636 20.9868 19.5979 20.8458 19.2895 20.5638L13.46 14.959L7.63054 20.5638C7.31328 20.8546 6.94757 21 6.53338 21C6.33069 21 6.13681 20.9603 5.95175 20.881C5.66094 20.7665 5.42961 20.5858 5.25777 20.3391C5.08592 20.0923 5 19.8191 5 19.5195V2.4805C5 2.18088 5.08592 1.90769 5.25777 1.66094C5.42961 1.41419 5.66094 1.23353 5.95175 1.11897C6.13681 1.03966 6.33069 1 6.53338 1H20.3866Z" stroke="black"/>
</g>
<defs>
<filter id="filter0_d_0_8169" x="0.5" y="0.5" width="25.9199" height="29" filterUnits="userSpaceOnUse" color-interpolation-filters="sRGB">
<feFlood flood-opacity="0" result="BackgroundImageFix"/>
<feColorMatrix in="SourceAlpha" type="matrix" values="0 0 0 0 0 0 0 0 0 0 0 0 0 0 0 0 0 0 127 0" result="hardAlpha"/>
<feOffset dy="4"/>
<feGaussianBlur stdDeviation="2"/>
<feComposite in2="hardAlpha" operator="out"/>
<feColorMatrix type="matrix" values="0 0 0 0 0 0 0 0 0 0 0 0 0 0 0 0 0 0 0.25 0"/>
<feBlend mode="normal" in2="BackgroundImageFix" result="effect1_dropShadow_0_8169"/>
<feBlend mode="normal" in="SourceGraphic" in2="effect1_dropShadow_0_8169" result="shape"/>
</filter>
</defs>
</svg>
