<svg xmlns="http://www.w3.org/2000/svg" width="30" height="30" viewBox="0 0 30 30" fill="none">
  <g filter="url(#filter0_d_0_8149)">
    <path fill-rule="evenodd" clip-rule="evenodd" d="M6 1H13C13.6 1 14 1.4 14 2V9C14 9.6 13.6 10 13 10H6C5.4 10 5 9.6 5 9V2C5 1.4 5.4 1 6 1ZM6 12H13C13.6 12 14 12.4 14 13V20C14 20.6 13.6 21 13 21H6C5.4 21 5 20.6 5 20V13C5 12.4 5.4 12 6 12ZM24 1H17C16.4 1 16 1.4 16 2V9C16 9.6 16.4 10 17 10H24C24.6 10 25 9.6 25 9V2C25 1.4 24.6 1 24 1ZM17 12H24C24.6 12 25 12.4 25 13V20C25 20.6 24.6 21 24 21H17C16.4 21 16 20.6 16 20V13C16 12.4 16.4 12 17 12Z" fill="white"/>
    <path d="M13 0.5H6V1.5H13V0.5ZM14.5 2C14.5 1.58638 14.3599 1.20284 14.0786 0.921447C13.7972 0.640057 13.4136 0.5 13 0.5V1.5C13.1864 1.5 13.3028 1.55994 13.3714 1.62855C13.4401 1.69716 13.5 1.81362 13.5 2H14.5ZM14.5 9V2H13.5V9H14.5ZM13 10.5C13.4136 10.5 13.7972 10.3599 14.0786 10.0786C14.3599 9.79716 14.5 9.41362 14.5 9H13.5C13.5 9.18638 13.4401 9.30284 13.3714 9.37145C13.3028 9.44006 13.1864 9.5 13 9.5V10.5ZM6 10.5H13V9.5H6V10.5ZM4.5 9C4.5 9.41362 4.64006 9.79716 4.92145 10.0786C5.20284 10.3599 5.58638 10.5 6 10.5V9.5C5.81362 9.5 5.69716 9.44006 5.62855 9.37145C5.55994 9.30284 5.5 9.18638 5.5 9H4.5ZM4.5 2V9H5.5V2H4.5ZM6 0.5C5.58638 0.5 5.20284 0.640057 4.92145 0.921447C4.64006 1.20284 4.5 1.58638 4.5 2H5.5C5.5 1.81362 5.55994 1.69716 5.62855 1.62855C5.69716 1.55994 5.81362 1.5 6 1.5V0.5ZM13 11.5H6V12.5H13V11.5ZM14.5 13C14.5 12.5864 14.3599 12.2028 14.0786 11.9214C13.7972 11.6401 13.4136 11.5 13 11.5V12.5C13.1864 12.5 13.3028 12.5599 13.3714 12.6286C13.4401 12.6972 13.5 12.8136 13.5 13H14.5ZM14.5 20V13H13.5V20H14.5ZM13 21.5C13.4136 21.5 13.7972 21.3599 14.0786 21.0786C14.3599 20.7972 14.5 20.4136 14.5 20H13.5C13.5 20.1864 13.4401 20.3028 13.3714 20.3714C13.3028 20.4401 13.1864 20.5 13 20.5V21.5ZM6 21.5H13V20.5H6V21.5ZM4.5 20C4.5 20.4136 4.64006 20.7972 4.92145 21.0786C5.20284 21.3599 5.58638 21.5 6 21.5V20.5C5.81362 20.5 5.69716 20.4401 5.62855 20.3714C5.55994 20.3028 5.5 20.1864 5.5 20H4.5ZM4.5 13V20H5.5V13H4.5ZM6 11.5C5.58638 11.5 5.20284 11.6401 4.92145 11.9214C4.64006 12.2028 4.5 12.5864 4.5 13H5.5C5.5 12.8136 5.55994 12.6972 5.62855 12.6286C5.69716 12.5599 5.81362 12.5 6 12.5V11.5ZM17 1.5H24V0.5H17V1.5ZM16.5 2C16.5 1.81362 16.5599 1.69716 16.6286 1.62855C16.6972 1.55994 16.8136 1.5 17 1.5V0.5C16.5864 0.5 16.2028 0.640057 15.9214 0.921447C15.6401 1.20284 15.5 1.58638 15.5 2H16.5ZM16.5 9V2H15.5V9H16.5ZM17 9.5C16.8136 9.5 16.6972 9.44006 16.6286 9.37145C16.5599 9.30284 16.5 9.18638 16.5 9H15.5C15.5 9.41362 15.6401 9.79716 15.9214 10.0786C16.2028 10.3599 16.5864 10.5 17 10.5V9.5ZM24 9.5H17V10.5H24V9.5ZM24.5 9C24.5 9.18638 24.4401 9.30284 24.3714 9.37145C24.3028 9.44006 24.1864 9.5 24 9.5V10.5C24.4136 10.5 24.7972 10.3599 25.0786 10.0786C25.3599 9.79716 25.5 9.41362 25.5 9H24.5ZM24.5 2V9H25.5V2H24.5ZM24 1.5C24.1864 1.5 24.3028 1.55994 24.3714 1.62855C24.4401 1.69716 24.5 1.81362 24.5 2H25.5C25.5 1.58638 25.3599 1.20284 25.0786 0.921447C24.7972 0.640057 24.4136 0.5 24 0.5V1.5ZM24 11.5H17V12.5H24V11.5ZM25.5 13C25.5 12.5864 25.3599 12.2028 25.0786 11.9214C24.7972 11.6401 24.4136 11.5 24 11.5V12.5C24.1864 12.5 24.3028 12.5599 24.3714 12.6286C24.4401 12.6972 24.5 12.8136 24.5 13H25.5ZM25.5 20V13H24.5V20H25.5ZM24 21.5C24.4136 21.5 24.7972 21.3599 25.0786 21.0786C25.3599 20.7972 25.5 20.4136 25.5 20H24.5C24.5 20.1864 24.4401 20.3028 24.3714 20.3714C24.3028 20.4401 24.1864 20.5 24 20.5V21.5ZM17 21.5H24V20.5H17V21.5ZM15.5 20C15.5 20.4136 15.6401 20.7972 15.9214 21.0786C16.2028 21.3599 16.5864 21.5 17 21.5V20.5C16.8136 20.5 16.6972 20.4401 16.6286 20.3714C16.5599 20.3028 16.5 20.1864 16.5 20H15.5ZM15.5 13V20H16.5V13H15.5ZM17 11.5C16.5864 11.5 16.2028 11.6401 15.9214 11.9214C15.6401 12.2028 15.5 12.5864 15.5 13H16.5C16.5 12.8136 16.5599 12.6972 16.6286 12.6286C16.6972 12.5599 16.8136 12.5 17 12.5V11.5Z" fill="black"/>
  </g>
  <defs>
    <filter id="filter0_d_0_8149" x="0.5" y="0.5" width="29" height="29" filterUnits="userSpaceOnUse" color-interpolation-filters="sRGB">
      <feFlood flood-opacity="0" result="BackgroundImageFix"/>
      <feColorMatrix in="SourceAlpha" type="matrix" values="0 0 0 0 0 0 0 0 0 0 0 0 0 0 0 0 0 0 127 0" result="hardAlpha"/>
      <feOffset dy="4"/>
      <feGaussianBlur stdDeviation="2"/>
      <feComposite in2="hardAlpha" operator="out"/>
      <feColorMatrix type="matrix" values="0 0 0 0 0 0 0 0 0 0 0 0 0 0 0 0 0 0 0.25 0"/>
      <feBlend mode="normal" in2="BackgroundImageFix" result="effect1_dropShadow_0_8149"/>
      <feBlend mode="normal" in="SourceGraphic" in2="effect1_dropShadow_0_8149" result="shape"/>
    </filter>
  </defs>
</svg>